<svg xmlns="http://www.w3.org/2000/svg" viewBox="0 0 512 512">
  <!-- Background fills entire icon -->
  <rect width="512" height="512" fill="#0b0f1a"/>

  <!-- Wallet scaled to 60% and centered for safe zone compliance -->
  <g transform="translate(256, 256) scale(0.55) translate(-256, -256)">
    <!-- Scale the original 2200x2200 viewbox content to fit -->
    <g transform="scale(0.2327) translate(100, 100)">
      <path fill="#ffffff" d="M1445.322 1261.727v97.661c0 60.069 48.696 108.765 108.765 108.765h233.631c16.902 0 30.605 13.702 30.605 30.605v255.671c0 66.094-53.58 119.675-119.675 119.675H448.276c-66.095 0-119.675-53.58-119.675-119.675V866.687c0-66.095 53.58-119.675 119.675-119.675h1250.371c66.094 0 119.675 53.58 119.675 119.675v255.671c0 16.902-13.702 30.605-30.605 30.605h-233.631c-60.069 0-108.765 48.696-108.765 108.765z"/>
      <path fill="#ffffff" d="M1823.239 1182.962h-268.737c-43.732 0-79.183 35.452-79.183 79.183v96.823c0 43.732 35.452 79.183 79.183 79.183h268.737c26.598 0 48.16-21.562 48.16-48.16v-158.87c0-26.598-21.562-48.16-48.16-48.16zm-228.421 175.78c-26.62 0-48.19-21.57-48.19-48.18s21.57-48.19 48.19-48.19c26.61 0 48.18 21.58 48.18 48.19s-21.57 48.18-48.18 48.18z"/>
      <path fill="#2dd4bf" d="M1538.076 505.081L657.383 719.964h958.744V566.378c0-40.9-38.316-70.992-78.051-61.297z"/>
      <path fill="#3b82f6" d="M1410.236 505.392l-879.44 214.571 756.94-386.921c36.29-18.86 80.66 1.27 90.37 41l32.13 131.35z"/>
    </g>
  </g>
</svg>
